<svg height="100%" version="1.1" width="100%" xmlns="http://www.w3.org/2000/svg" preserveAspectRatio="xMidYMid meet" viewBox="0 0 600 442" xmlns:xlink="http://www.w3.org/1999/xlink"><desc>Created with Snap</desc><defs/><g id="root" contentwidth="409.62" contentheight="136.825">
          <rect class="background" height="2000%" width="2000%" y="-1000%" x="-1000%" style="" fill="#ffffff"/>
          <rect class="watermarklayer" height="100%" width="100%" y="0" x="0" style="" fill="none"/>
          <g class="content" id="content" transform="matrix(1,0,0,1,130.81,240.9125)">
            <g class="icon" style="mask: url(#mask);">
            <svg height="136.825" version="1.1" width="409.62" xmlns="http://www.w3.org/2000/svg" x="-35.620000000000005" y="-88.32499999999999"><desc>Created with Snap</desc><defs/><svg xmlns:xlink="http://www.w3.org/1999/xlink" version="1.1" xmlns="http://www.w3.org/2000/svg" viewBox="0 0 409.62 136.825"><defs/><g><path fill="#F1AF00" stroke="none" paint-order="stroke fill markers" d=" M 12.5 124.32499999999999 Q 204.81 84.32499999999999 397.12 124.32499999999999 Q 204.81 104.32499999999999 12.5 124.32499999999999"/><path fill="#F1AF00" stroke="none" paint-order="stroke fill markers" d=" M 89.424 134.325 Q 243.272 84.32499999999999 397.12 124.32499999999999 Q 243.272 104.32499999999999 89.424 134.325"/><path fill="#F1AF00" stroke="none" paint-order="stroke fill markers" d=" M 2.5 68.4125 Q 7.5 58.412499999999994 25.833333333333336 73.4125 Q 7.5 78.4125 2.5 68.4125"/><path fill="#F1AF00" stroke="none" paint-order="stroke fill markers" d=" M 32.5 12.5 Q 22.5 22.5 42.5 32.5 Q 42.5 2.5 32.5 12.5"/><path fill="#F1AF00" stroke="none" paint-order="stroke fill markers" d=" M 92.5 2.5 Q 82.5 2.5 82.5 25.833333333333336 Q 112.5 2.5 92.5 2.5"/></g></svg></svg></g>
            <g id="icon_name_and_slogan_gap">
            </g>
            <g class="name_and_slogan" id="name_and_slogan_id">
              <g class="name"><g id="nameDefaultGroup"><path d="M22.1 -2.3 L22.8 -2.2 Q23.1 -2.1 23.5 -1.8 Q24 -1.4 24 -1 Q24 -0.6 23.6 -0.3 Q23.2 -0 22.8 -0 L3 -0 Q2.5 -0 2.2 -0.3 Q1.8 -0.6 1.9 -1.2 Q1.9 -2 3 -2.2 L3.7 -2.3 Q5.3 -2.5 6.5 -4 Q8 -5.8 8 -8.5 L8.1 -42.5 Q8.1 -43.9 7.7 -44.7 Q7.2 -45.5 5.8 -45.9 L4.2 -46 L3.2 -46.2 Q2.2 -46.3 2.2 -47.3 Q2.3 -48 3.1 -48.2 Q4 -48.4 5.4 -48.5 Q5.9 -48.5 7.1 -48.6 Q9.3 -49 9.7 -49.1 L12.9 -49.8 Q14.8 -50.2 15.8 -50.6 Q16.9 -50.9 17.4 -50.8 Q17.8 -50.6 17.9 -50.2 L17.9 -8.6 Q17.8 -7.1 18.4 -5.7 Q19 -4.2 20 -3.3 Q21.1 -2.5 22.1 -2.3 M44.1 -44.7 Q44.1 -43.3 43.4 -42.1 Q41.6 -39.4 38.7 -39.4 Q36.2 -39.4 34.5 -41 Q32.8 -42.6 32.8 -45 Q32.8 -47.5 34.5 -49 Q36.2 -50.6 38.7 -50.6 Q40.9 -50.6 42.5 -48.8 Q44.1 -46.9 44.1 -44.7 Z M47.6 -2.5 L48.9 -2.2 Q49.3 -2.2 49.6 -1.9 Q49.9 -1.6 49.9 -1.2 Q49.9 -0.6 49.5 -0.2 Q49.1 0.1 48.4 0.1 L29 0.1 Q28.4 0.1 28 -0.2 Q27.7 -0.5 27.9 -1.2 Q28 -2.1 29 -2.2 L29.7 -2.3 Q30.4 -2.4 31.2 -2.8 Q32 -3.2 32.7 -4 Q34 -5.5 34 -8.4 L33.9 -26.1 Q33.9 -28 33 -28.7 Q32.6 -29.1 31.7 -29.3 Q30.8 -29.5 30 -29.6 L29.1 -29.7 Q28.7 -29.7 28.3 -30.1 Q27.9 -30.5 28 -31 Q28.2 -31.5 28.9 -31.7 Q29.6 -31.9 31 -32 Q32.6 -32.2 33.5 -32.3 L37.1 -33 Q37.7 -33 38.6 -33.2 Q39.5 -33.3 39.8 -33.5 Q40.8 -33.7 42 -34.1 Q43.2 -34.6 43.5 -34.5 Q43.9 -34.2 44 -33.8 L44 -8.6 Q43.9 -6 44.9 -4.3 Q46 -2.6 47.6 -2.5 M53.7 -32 Q53.7 -32.8 54.2 -33.2 Q54.8 -33.6 55.3 -33.6 L56.5 -33.6 Q58.8 -33.6 60.7 -35.8 Q61.9 -37.1 63.2 -39.7 Q64.4 -42.3 65 -45.2 Q65.8 -48 66.4 -49.5 Q66.9 -50.5 67.7 -50.7 L67.9 -50.7 Q68.6 -50.7 69.2 -50.1 Q69.9 -49.4 69.9 -47.3 L69.9 -33.6 L76.5 -33.6 Q77.2 -33.6 77.8 -33.3 Q78.4 -32.9 78.4 -32.1 Q78.4 -31.3 77.8 -30.9 Q77.2 -30.5 76.5 -30.5 L69.9 -30.5 L69.9 -8.8 Q69.9 -7.4 70.3 -6.8 Q70.7 -6.1 71.7 -6 Q73 -5.5 76 -8.7 Q76.7 -9.4 77.2 -9.6 Q77.7 -9.9 78.1 -9.7 Q78.9 -9.4 78.9 -8.4 Q78.9 -7.6 77.8 -6.2 Q76 -3.7 75 -2.7 Q72.2 0.1 67.9 0.1 Q65.8 0.1 64.1 -0.6 Q62.4 -1.3 61.6 -2.5 Q60.8 -3.6 60.5 -5 Q60.2 -6.3 60.2 -8.6 L60.2 -30.5 L55.2 -30.5 Q54.7 -30.5 54.2 -30.9 Q53.7 -31.3 53.7 -32 M82.7 -32 Q82.7 -32.8 83.2 -33.2 Q83.8 -33.6 84.3 -33.6 L85.5 -33.6 Q87.8 -33.6 89.7 -35.8 Q90.9 -37.1 92.2 -39.7 Q93.4 -42.3 94 -45.2 Q94.8 -48 95.4 -49.5 Q95.9 -50.5 96.7 -50.7 L96.9 -50.7 Q97.6 -50.7 98.2 -50.1 Q98.9 -49.4 98.9 -47.3 L98.9 -33.6 L105.5 -33.6 Q106.2 -33.6 106.8 -33.3 Q107.4 -32.9 107.4 -32.1 Q107.4 -31.3 106.8 -30.9 Q106.2 -30.5 105.5 -30.5 L98.9 -30.5 L98.9 -8.8 Q98.9 -7.4 99.3 -6.8 Q99.7 -6.1 100.7 -6 Q102 -5.5 105 -8.7 Q105.7 -9.4 106.2 -9.6 Q106.7 -9.9 107.1 -9.7 Q107.9 -9.4 107.9 -8.4 Q107.9 -7.6 106.8 -6.2 Q105 -3.7 104 -2.7 Q101.2 0.1 96.9 0.1 Q94.8 0.1 93.1 -0.6 Q91.4 -1.3 90.6 -2.5 Q89.8 -3.6 89.5 -5 Q89.2 -6.3 89.2 -8.6 L89.2 -30.5 L84.2 -30.5 Q83.7 -30.5 83.2 -30.9 Q82.7 -31.3 82.7 -32 M132.1 -2.3 L132.8 -2.2 Q133.1 -2.1 133.5 -1.8 Q134 -1.4 134 -1 Q134 -0.6 133.6 -0.3 Q133.2 0 132.8 0 L113 0 Q112.5 0 112.2 -0.3 Q111.8 -0.6 111.9 -1.2 Q111.9 -2 113 -2.2 L113.7 -2.3 Q115.3 -2.5 116.5 -4 Q118 -5.8 118 -8.5 L118.1 -42.5 Q118.1 -43.9 117.7 -44.7 Q117.2 -45.5 115.8 -45.9 L114.2 -46 L113.2 -46.2 Q112.2 -46.3 112.2 -47.3 Q112.3 -48 113.1 -48.2 Q114 -48.4 115.4 -48.5 Q115.9 -48.5 117.1 -48.6 Q119.3 -49 119.7 -49.1 L122.9 -49.8 Q124.8 -50.2 125.8 -50.6 Q126.9 -50.9 127.4 -50.8 Q127.8 -50.6 127.9 -50.2 L127.9 -8.6 Q127.8 -7.1 128.4 -5.7 Q129 -4.2 130 -3.3 Q131.1 -2.5 132.1 -2.3 M149 -8.8 Q149.5 -6.8 151.6 -5.3 Q153.7 -3.8 155.9 -3.8 Q156.7 -3.8 158.2 -4.1 Q159.7 -4.5 160.8 -5 Q162.1 -5.8 163.8 -7.2 Q165.5 -8.7 166.2 -10 Q166.8 -10.9 167.2 -11.2 Q167.5 -11.5 168.1 -11.7 L168.4 -11.7 Q169 -11.7 169.4 -11.1 Q169.6 -10.8 169.6 -10.4 Q169.6 -9.6 169 -8.4 Q168 -6.5 166.5 -4.9 Q165.1 -3.2 163.5 -2.2 Q161.8 -0.9 159.8 -0.3 Q157.8 0.3 154.9 0.3 Q149.2 0.3 145.4 -2.2 Q141.5 -4.8 139.7 -9 Q137.9 -13.2 137.9 -18.2 Q137.9 -20.7 138.7 -23.5 Q139.5 -26.4 141.5 -28.8 Q143.3 -30.8 145.6 -32 Q147.5 -33.1 149.2 -33.5 Q151 -33.9 153.1 -33.9 Q156.2 -33.9 158.4 -33.3 Q160.5 -32.7 162.9 -31 Q164.5 -29.9 165.8 -28 Q167.1 -26.1 167.6 -24.5 Q168.4 -22.6 168.6 -20.2 L168.8 -17.9 L147.7 -17.9 L147.9 -14.8 Q148 -13.5 148.2 -11.8 Q148.5 -10.2 149 -8.8 Z M159.1 -22.1 Q159 -22.5 159 -23.5 L158.8 -25.3 Q157.8 -30.5 153.2 -30.4 Q149.8 -30.1 148.8 -27 Q148.4 -25.8 148.1 -24.4 Q147.9 -23 147.9 -22.4 L147.8 -20.9 L159.2 -20.9 Q159.2 -21.6 159.1 -22.1 M173.7 -32 Q173.7 -32.8 174.2 -33.2 Q174.8 -33.6 175.3 -33.6 L176.5 -33.6 Q178.8 -33.6 180.7 -35.8 Q181.9 -37.1 183.2 -39.7 Q184.4 -42.3 185 -45.2 Q185.8 -48 186.4 -49.5 Q186.9 -50.5 187.7 -50.7 L187.9 -50.7 Q188.6 -50.7 189.2 -50.1 Q189.9 -49.4 189.9 -47.3 L189.9 -33.6 L196.5 -33.6 Q197.2 -33.6 197.8 -33.3 Q198.4 -32.9 198.4 -32.1 Q198.4 -31.3 197.8 -30.9 Q197.2 -30.5 196.5 -30.5 L189.9 -30.5 L189.9 -8.8 Q189.9 -7.4 190.3 -6.8 Q190.7 -6.1 191.7 -6 Q193 -5.5 196 -8.7 Q196.7 -9.4 197.2 -9.6 Q197.7 -9.9 198.1 -9.7 Q198.9 -9.4 198.9 -8.4 Q198.9 -7.6 197.8 -6.2 Q196 -3.7 195 -2.7 Q192.2 0.1 187.9 0.1 Q185.8 0.1 184.1 -0.6 Q182.4 -1.3 181.6 -2.5 Q180.8 -3.6 180.5 -5 Q180.2 -6.3 180.2 -8.6 L180.2 -30.5 L175.2 -30.5 Q174.7 -30.5 174.2 -30.9 Q173.7 -31.3 173.7 -32 M219.1 -44.7 Q219.1 -43.3 218.4 -42.1 Q216.6 -39.4 213.7 -39.4 Q211.2 -39.4 209.5 -41 Q207.8 -42.6 207.8 -45 Q207.8 -47.5 209.5 -49 Q211.2 -50.6 213.7 -50.6 Q215.9 -50.6 217.5 -48.8 Q219.1 -46.9 219.1 -44.7 Z M222.6 -2.5 L223.9 -2.2 Q224.3 -2.2 224.6 -1.9 Q224.9 -1.6 224.9 -1.2 Q224.9 -0.6 224.5 -0.2 Q224.1 0.1 223.4 0.1 L204 0.1 Q203.4 0.1 203 -0.2 Q202.7 -0.5 202.9 -1.2 Q203 -2.1 204 -2.2 L204.7 -2.3 Q205.4 -2.4 206.2 -2.8 Q207 -3.2 207.7 -4 Q209 -5.5 209 -8.4 L208.9 -26.1 Q208.9 -28 208 -28.7 Q207.6 -29.1 206.7 -29.3 Q205.8 -29.5 205 -29.6 L204.1 -29.7 Q203.7 -29.7 203.3 -30.1 Q202.9 -30.5 203 -31 Q203.2 -31.5 203.9 -31.7 Q204.6 -31.9 206 -32 Q207.6 -32.2 208.5 -32.3 L212.1 -33 Q212.7 -33 213.6 -33.2 Q214.5 -33.3 214.8 -33.5 Q215.8 -33.7 217 -34.1 Q218.2 -34.6 218.5 -34.5 Q218.9 -34.2 219 -33.8 L219 -8.6 Q218.9 -6 219.9 -4.3 Q221 -2.6 222.6 -2.5 M256.2 -32.8 Q258.4 -35.1 261.1 -35.1 Q263.4 -35.1 264.5 -33.9 Q265.7 -32.8 265.7 -31 Q265.7 -29.5 264.7 -28.6 Q263.6 -27.6 262.3 -27.6 Q261.4 -27.6 260.7 -28.1 Q260 -28.5 259.6 -29.2 L259.4 -29.9 Q259 -30.5 258.5 -30.5 Q258.2 -30.4 257.7 -30 Q257.2 -29.6 257 -29.2 L256.5 -28.5 Q257.8 -26.6 258.3 -25.3 Q258.8 -23.9 258.7 -21.5 Q258.8 -18.6 257 -16.4 Q255.2 -14.2 252.2 -13 Q249.2 -11.8 245.9 -11.6 L243.3 -11.2 Q241.5 -11 240.3 -10.5 Q239.2 -10.1 239.2 -9.6 Q239.2 -9.1 240 -8.6 Q240.7 -8.2 241.9 -8.2 Q243.6 -8.4 247.5 -8.1 L251 -7.9 Q253.1 -7.8 253 -7.8 Q257.5 -7.2 260.2 -4.7 Q261.3 -3.7 261.8 -2.2 Q262.4 -0.8 262.4 0.7 Q262.4 3.2 261.1 5.2 Q256.5 11 245.1 11 Q242.5 11 239.8 10.7 Q237 10.3 234.9 9.6 Q232.2 8.7 230.5 7.4 Q228.9 6 228.9 3.8 Q228.9 2.4 230 0.9 Q231.2 -0.5 233.5 -1.3 L235.6 -2.1 Q233.1 -2.7 231.6 -3.7 Q230.2 -4.8 230.2 -6.8 Q230.5 -10.7 236.4 -12.4 L238.6 -13 Q238.2 -13.2 237.2 -13.7 Q236.2 -14.2 235.6 -14.7 Q234.9 -15.2 234.2 -16 Q233 -17.5 232.4 -19.1 Q231.9 -20.7 231.9 -22.9 Q232 -27.1 235 -29.7 Q238.7 -33 245.4 -33 Q247.3 -33 249.4 -32.6 Q251.5 -32.1 252.6 -31.5 L254.2 -30.5 Q254.9 -31.5 256.2 -32.8 Z M245.1 -29.7 Q243.2 -29.6 242.2 -27.6 Q241.8 -26.8 241.5 -25.2 Q241.2 -23.6 241.2 -22.5 Q241.2 -21.5 241.4 -20.1 Q241.6 -18.6 241.8 -17.9 Q242.3 -16.8 243.2 -16.2 Q244.1 -15.5 245.3 -15.5 Q246.4 -15.5 247.6 -16.3 Q249.4 -17.9 249.4 -22.5 Q249.6 -25.5 248.5 -27.8 Q247.3 -30.1 245.1 -29.7 Z M246.1 7.6 Q249.2 7.6 251.3 6.8 Q252.9 6.3 253.8 5.4 Q254.7 4.5 254.7 3.4 Q254.7 2.6 254.1 1.6 Q253.1 0.2 250.6 -0.2 Q248.1 -0.6 244.9 -0.6 Q242.7 -0.6 240.5 -0.4 Q238.3 -0.1 237.3 0.2 Q236.1 0.6 235.3 1.5 Q234.5 2.5 234.5 3.4 Q234.5 4.1 234.9 4.6 Q235.9 6 239.8 7 Q242.1 7.6 246.1 7.6 M281 -8.8 Q281.5 -6.8 283.6 -5.3 Q285.7 -3.8 287.9 -3.8 Q288.7 -3.8 290.2 -4.1 Q291.7 -4.5 292.8 -5 Q294.1 -5.8 295.8 -7.2 Q297.5 -8.7 298.2 -10 Q298.8 -10.9 299.2 -11.2 Q299.5 -11.5 300.1 -11.7 L300.4 -11.7 Q301 -11.7 301.4 -11.1 Q301.6 -10.8 301.6 -10.4 Q301.6 -9.6 301 -8.4 Q300 -6.5 298.5 -4.9 Q297.1 -3.2 295.5 -2.2 Q293.8 -0.9 291.8 -0.3 Q289.8 0.3 286.9 0.3 Q281.2 0.3 277.4 -2.2 Q273.5 -4.8 271.7 -9 Q269.9 -13.2 269.9 -18.2 Q269.9 -20.7 270.7 -23.5 Q271.5 -26.4 273.5 -28.8 Q275.3 -30.8 277.6 -32 Q279.5 -33.1 281.2 -33.5 Q283 -33.9 285.1 -33.9 Q288.2 -33.9 290.4 -33.3 Q292.5 -32.7 294.9 -31 Q296.5 -29.9 297.8 -28 Q299.1 -26.1 299.6 -24.5 Q300.4 -22.6 300.6 -20.2 L300.8 -17.9 L279.7 -17.9 L279.9 -14.8 Q280 -13.5 280.2 -11.8 Q280.5 -10.2 281 -8.8 Z M291.1 -22.1 Q291 -22.5 291 -23.5 L290.8 -25.3 Q289.8 -30.5 285.2 -30.4 Q281.8 -30.1 280.8 -27 Q280.4 -25.8 280.1 -24.4 Q279.9 -23 279.9 -22.4 L279.8 -20.9 L291.2 -20.9 Q291.2 -21.6 291.1 -22.1 M328.8 -33 Q329.8 -33.1 330.3 -33.1 Q332.2 -33.1 333.6 -32.3 Q335 -31.5 335.8 -30.4 Q336.5 -29.2 336.5 -27.8 Q336.5 -25.5 335.1 -24.1 Q333.7 -22.7 331.7 -22.7 Q329.6 -22.7 328.8 -23.7 Q328 -24.6 328 -25.9 L328.3 -27.2 Q328.2 -28 327.4 -28 Q327 -28 326.5 -27.8 Q325.2 -27.2 324.2 -26.1 Q323.2 -24.9 322.6 -23.4 L321.7 -21.5 L321.7 -8.6 Q321.4 -6.4 322.6 -4.4 Q323.8 -2.5 325.3 -2.3 L326 -2.2 Q326.4 -2.1 326.7 -1.8 Q327 -1.4 327 -1 Q326.9 -0.4 326.6 -0.2 Q326.2 0 325.5 0 L307 0 Q305.7 0 305.7 -1 Q305.7 -1.4 306.1 -1.8 Q306.5 -2.1 306.9 -2.2 L307.5 -2.3 Q308 -2.4 308.8 -2.7 Q309.6 -3.1 310.3 -3.6 Q311 -4.2 311.4 -5.7 Q311.8 -7.1 311.8 -8.6 L311.8 -25.5 Q312 -26.4 311.5 -27.4 Q311.1 -28.4 310.2 -29.1 Q309.2 -29.8 308.4 -29.7 L307 -29.9 Q306.5 -29.9 306.2 -30.2 Q305.9 -30.5 305.9 -30.8 Q305.9 -31.4 306.7 -31.9 Q307.9 -32.2 310.3 -32.4 Q316.1 -33 317.6 -33.6 L320 -34.5 Q320.8 -34.6 321.1 -34.5 Q321.6 -34 321.6 -33 L321.7 -27.5 Q322.1 -28.1 323.2 -29.5 Q324.3 -31 325.5 -31.8 Q326.8 -32.5 328.8 -33 " style="" fill="#f2b41e" id="namepathdata"/></g></g>
              <g class="slogan"><g id="sloganDefaultGroup"/></g>
            </g>
            <g class="border">
            </g>
          </g>
          <defs id="defs">
            <mask xmlns="http://www.w3.org/2000/svg" id="mask">
                <rect id="showAll" fill="white" x="-35.620000000000005" y="-88.32499999999999" width="409.62" height="136.825"/>
                <rect id="hideNameBg" fill="black" x="0" y="0" width="0" height="0" stroke-width="2" stroke="black"/>
                <rect id="hideSloganBg" fill="black" x="0" y="0" width="0" height="0" stroke-width="2" stroke="black"/>
            <path d="M22.1 -2.3 L22.8 -2.2 Q23.1 -2.1 23.5 -1.8 Q24 -1.4 24 -1 Q24 -0.6 23.6 -0.3 Q23.2 -0 22.8 -0 L3 -0 Q2.5 -0 2.2 -0.3 Q1.8 -0.6 1.9 -1.2 Q1.9 -2 3 -2.2 L3.7 -2.3 Q5.3 -2.5 6.5 -4 Q8 -5.8 8 -8.5 L8.1 -42.5 Q8.1 -43.9 7.7 -44.7 Q7.2 -45.5 5.8 -45.9 L4.2 -46 L3.2 -46.2 Q2.2 -46.3 2.2 -47.3 Q2.3 -48 3.1 -48.2 Q4 -48.4 5.4 -48.5 Q5.9 -48.5 7.1 -48.6 Q9.3 -49 9.7 -49.1 L12.9 -49.8 Q14.8 -50.2 15.8 -50.6 Q16.9 -50.9 17.4 -50.8 Q17.8 -50.6 17.9 -50.2 L17.9 -8.6 Q17.8 -7.1 18.4 -5.7 Q19 -4.2 20 -3.3 Q21.1 -2.5 22.1 -2.3 M44.1 -44.7 Q44.1 -43.3 43.4 -42.1 Q41.6 -39.4 38.7 -39.4 Q36.2 -39.4 34.5 -41 Q32.8 -42.6 32.8 -45 Q32.8 -47.5 34.5 -49 Q36.2 -50.6 38.7 -50.6 Q40.9 -50.6 42.5 -48.8 Q44.1 -46.9 44.1 -44.7 Z M47.6 -2.5 L48.9 -2.2 Q49.3 -2.2 49.6 -1.9 Q49.9 -1.6 49.9 -1.2 Q49.9 -0.6 49.5 -0.2 Q49.1 0.1 48.4 0.1 L29 0.1 Q28.4 0.1 28 -0.2 Q27.7 -0.5 27.9 -1.2 Q28 -2.1 29 -2.2 L29.7 -2.3 Q30.4 -2.4 31.2 -2.8 Q32 -3.2 32.7 -4 Q34 -5.5 34 -8.4 L33.9 -26.1 Q33.9 -28 33 -28.7 Q32.6 -29.1 31.7 -29.3 Q30.8 -29.5 30 -29.6 L29.1 -29.7 Q28.7 -29.7 28.3 -30.1 Q27.9 -30.5 28 -31 Q28.2 -31.5 28.9 -31.7 Q29.6 -31.9 31 -32 Q32.6 -32.2 33.5 -32.3 L37.1 -33 Q37.7 -33 38.6 -33.2 Q39.5 -33.3 39.8 -33.5 Q40.8 -33.7 42 -34.1 Q43.2 -34.6 43.5 -34.5 Q43.9 -34.2 44 -33.8 L44 -8.6 Q43.9 -6 44.9 -4.3 Q46 -2.6 47.6 -2.5 M53.7 -32 Q53.7 -32.8 54.2 -33.2 Q54.8 -33.6 55.3 -33.6 L56.5 -33.6 Q58.8 -33.6 60.7 -35.8 Q61.9 -37.1 63.2 -39.7 Q64.4 -42.3 65 -45.2 Q65.8 -48 66.4 -49.5 Q66.9 -50.5 67.7 -50.7 L67.9 -50.7 Q68.6 -50.7 69.2 -50.1 Q69.9 -49.4 69.9 -47.3 L69.9 -33.6 L76.5 -33.6 Q77.2 -33.6 77.8 -33.3 Q78.4 -32.9 78.4 -32.1 Q78.4 -31.3 77.8 -30.9 Q77.2 -30.5 76.5 -30.5 L69.9 -30.5 L69.9 -8.8 Q69.9 -7.4 70.3 -6.8 Q70.7 -6.1 71.7 -6 Q73 -5.5 76 -8.7 Q76.7 -9.4 77.2 -9.6 Q77.7 -9.9 78.1 -9.7 Q78.9 -9.4 78.9 -8.4 Q78.9 -7.6 77.8 -6.2 Q76 -3.7 75 -2.7 Q72.2 0.1 67.9 0.1 Q65.8 0.1 64.1 -0.6 Q62.4 -1.3 61.6 -2.5 Q60.8 -3.6 60.5 -5 Q60.2 -6.3 60.2 -8.6 L60.2 -30.5 L55.2 -30.5 Q54.7 -30.5 54.2 -30.9 Q53.7 -31.3 53.7 -32 M82.7 -32 Q82.7 -32.8 83.2 -33.2 Q83.8 -33.6 84.3 -33.6 L85.5 -33.6 Q87.8 -33.6 89.7 -35.8 Q90.9 -37.1 92.2 -39.7 Q93.4 -42.3 94 -45.2 Q94.8 -48 95.4 -49.5 Q95.9 -50.5 96.7 -50.7 L96.9 -50.7 Q97.6 -50.7 98.2 -50.1 Q98.9 -49.4 98.9 -47.3 L98.9 -33.6 L105.5 -33.6 Q106.2 -33.6 106.8 -33.3 Q107.4 -32.9 107.4 -32.1 Q107.4 -31.3 106.8 -30.9 Q106.2 -30.5 105.5 -30.5 L98.9 -30.5 L98.9 -8.8 Q98.9 -7.4 99.3 -6.8 Q99.7 -6.1 100.7 -6 Q102 -5.5 105 -8.7 Q105.7 -9.4 106.2 -9.6 Q106.7 -9.9 107.1 -9.7 Q107.9 -9.4 107.9 -8.4 Q107.9 -7.6 106.8 -6.2 Q105 -3.7 104 -2.7 Q101.2 0.1 96.9 0.1 Q94.8 0.1 93.1 -0.6 Q91.4 -1.3 90.6 -2.5 Q89.8 -3.6 89.5 -5 Q89.2 -6.3 89.2 -8.6 L89.2 -30.5 L84.2 -30.5 Q83.7 -30.5 83.2 -30.9 Q82.7 -31.3 82.7 -32 M132.1 -2.3 L132.8 -2.2 Q133.1 -2.1 133.5 -1.8 Q134 -1.4 134 -1 Q134 -0.6 133.6 -0.3 Q133.2 0 132.8 0 L113 0 Q112.5 0 112.2 -0.3 Q111.8 -0.6 111.9 -1.2 Q111.9 -2 113 -2.2 L113.7 -2.3 Q115.3 -2.5 116.5 -4 Q118 -5.8 118 -8.5 L118.1 -42.5 Q118.1 -43.9 117.7 -44.7 Q117.2 -45.5 115.8 -45.9 L114.2 -46 L113.2 -46.2 Q112.2 -46.3 112.2 -47.3 Q112.3 -48 113.1 -48.2 Q114 -48.4 115.4 -48.5 Q115.9 -48.5 117.1 -48.6 Q119.3 -49 119.7 -49.1 L122.9 -49.8 Q124.8 -50.2 125.8 -50.6 Q126.9 -50.9 127.4 -50.8 Q127.8 -50.6 127.9 -50.2 L127.9 -8.6 Q127.8 -7.1 128.4 -5.7 Q129 -4.2 130 -3.3 Q131.1 -2.5 132.1 -2.3 M149 -8.8 Q149.5 -6.8 151.6 -5.3 Q153.7 -3.8 155.9 -3.8 Q156.7 -3.8 158.2 -4.1 Q159.7 -4.5 160.8 -5 Q162.1 -5.8 163.8 -7.2 Q165.5 -8.7 166.2 -10 Q166.8 -10.9 167.2 -11.2 Q167.5 -11.5 168.1 -11.7 L168.4 -11.7 Q169 -11.7 169.4 -11.1 Q169.6 -10.8 169.6 -10.4 Q169.6 -9.6 169 -8.4 Q168 -6.5 166.5 -4.9 Q165.1 -3.2 163.5 -2.2 Q161.8 -0.9 159.8 -0.3 Q157.8 0.3 154.9 0.3 Q149.2 0.3 145.4 -2.2 Q141.5 -4.8 139.7 -9 Q137.9 -13.2 137.9 -18.2 Q137.9 -20.7 138.7 -23.5 Q139.5 -26.4 141.5 -28.8 Q143.3 -30.8 145.6 -32 Q147.5 -33.1 149.2 -33.5 Q151 -33.9 153.1 -33.9 Q156.2 -33.9 158.4 -33.3 Q160.5 -32.7 162.9 -31 Q164.5 -29.9 165.8 -28 Q167.1 -26.1 167.6 -24.5 Q168.4 -22.6 168.6 -20.2 L168.8 -17.9 L147.7 -17.9 L147.9 -14.8 Q148 -13.5 148.2 -11.8 Q148.5 -10.2 149 -8.8 Z M159.1 -22.1 Q159 -22.5 159 -23.5 L158.8 -25.3 Q157.8 -30.5 153.2 -30.4 Q149.8 -30.1 148.8 -27 Q148.4 -25.8 148.1 -24.4 Q147.9 -23 147.9 -22.4 L147.8 -20.9 L159.2 -20.9 Q159.2 -21.6 159.1 -22.1 M173.7 -32 Q173.7 -32.8 174.2 -33.2 Q174.8 -33.6 175.3 -33.6 L176.5 -33.6 Q178.8 -33.6 180.7 -35.8 Q181.9 -37.1 183.2 -39.7 Q184.4 -42.3 185 -45.2 Q185.8 -48 186.4 -49.5 Q186.9 -50.5 187.7 -50.7 L187.9 -50.7 Q188.6 -50.7 189.2 -50.1 Q189.9 -49.4 189.9 -47.3 L189.9 -33.6 L196.5 -33.6 Q197.2 -33.6 197.8 -33.3 Q198.4 -32.9 198.4 -32.1 Q198.4 -31.3 197.8 -30.9 Q197.2 -30.5 196.5 -30.5 L189.9 -30.5 L189.9 -8.8 Q189.9 -7.4 190.3 -6.8 Q190.7 -6.1 191.7 -6 Q193 -5.5 196 -8.7 Q196.7 -9.4 197.2 -9.6 Q197.7 -9.9 198.1 -9.7 Q198.9 -9.4 198.9 -8.4 Q198.9 -7.6 197.8 -6.2 Q196 -3.7 195 -2.7 Q192.2 0.1 187.9 0.1 Q185.8 0.1 184.1 -0.6 Q182.4 -1.3 181.6 -2.5 Q180.8 -3.6 180.5 -5 Q180.2 -6.3 180.2 -8.6 L180.2 -30.5 L175.2 -30.5 Q174.7 -30.5 174.2 -30.9 Q173.7 -31.3 173.7 -32 M219.1 -44.7 Q219.1 -43.3 218.4 -42.1 Q216.6 -39.4 213.7 -39.4 Q211.2 -39.4 209.5 -41 Q207.8 -42.6 207.8 -45 Q207.8 -47.5 209.5 -49 Q211.2 -50.6 213.7 -50.6 Q215.9 -50.6 217.5 -48.8 Q219.1 -46.9 219.1 -44.7 Z M222.6 -2.5 L223.9 -2.2 Q224.3 -2.2 224.6 -1.9 Q224.9 -1.6 224.9 -1.2 Q224.9 -0.6 224.5 -0.2 Q224.1 0.1 223.4 0.1 L204 0.1 Q203.4 0.1 203 -0.2 Q202.7 -0.5 202.9 -1.2 Q203 -2.1 204 -2.2 L204.7 -2.3 Q205.4 -2.4 206.2 -2.8 Q207 -3.2 207.7 -4 Q209 -5.5 209 -8.4 L208.9 -26.1 Q208.9 -28 208 -28.7 Q207.6 -29.1 206.7 -29.3 Q205.8 -29.5 205 -29.6 L204.1 -29.7 Q203.7 -29.7 203.3 -30.1 Q202.9 -30.5 203 -31 Q203.2 -31.5 203.9 -31.7 Q204.6 -31.9 206 -32 Q207.6 -32.2 208.5 -32.3 L212.1 -33 Q212.7 -33 213.6 -33.2 Q214.5 -33.3 214.8 -33.5 Q215.8 -33.7 217 -34.1 Q218.2 -34.6 218.5 -34.5 Q218.9 -34.2 219 -33.8 L219 -8.6 Q218.9 -6 219.9 -4.3 Q221 -2.6 222.6 -2.5 M256.2 -32.8 Q258.4 -35.1 261.1 -35.1 Q263.4 -35.1 264.5 -33.9 Q265.7 -32.8 265.7 -31 Q265.7 -29.5 264.7 -28.6 Q263.6 -27.6 262.3 -27.6 Q261.4 -27.6 260.7 -28.1 Q260 -28.5 259.6 -29.2 L259.4 -29.9 Q259 -30.5 258.5 -30.5 Q258.2 -30.4 257.7 -30 Q257.2 -29.6 257 -29.2 L256.5 -28.5 Q257.8 -26.6 258.3 -25.3 Q258.8 -23.9 258.7 -21.5 Q258.8 -18.6 257 -16.4 Q255.2 -14.2 252.2 -13 Q249.2 -11.8 245.9 -11.6 L243.3 -11.2 Q241.5 -11 240.3 -10.5 Q239.2 -10.1 239.2 -9.6 Q239.2 -9.1 240 -8.6 Q240.7 -8.2 241.9 -8.2 Q243.6 -8.4 247.5 -8.1 L251 -7.9 Q253.1 -7.8 253 -7.8 Q257.5 -7.2 260.2 -4.7 Q261.3 -3.7 261.8 -2.2 Q262.4 -0.8 262.4 0.7 Q262.4 3.2 261.1 5.2 Q256.5 11 245.1 11 Q242.5 11 239.8 10.7 Q237 10.3 234.9 9.6 Q232.2 8.7 230.5 7.4 Q228.9 6 228.9 3.8 Q228.9 2.4 230 0.9 Q231.2 -0.5 233.5 -1.3 L235.6 -2.1 Q233.1 -2.7 231.6 -3.7 Q230.2 -4.8 230.2 -6.8 Q230.5 -10.7 236.4 -12.4 L238.6 -13 Q238.2 -13.2 237.2 -13.7 Q236.2 -14.2 235.6 -14.7 Q234.9 -15.2 234.2 -16 Q233 -17.5 232.4 -19.1 Q231.9 -20.7 231.9 -22.9 Q232 -27.1 235 -29.7 Q238.7 -33 245.4 -33 Q247.3 -33 249.4 -32.6 Q251.5 -32.1 252.6 -31.5 L254.2 -30.5 Q254.9 -31.5 256.2 -32.8 Z M245.1 -29.7 Q243.2 -29.6 242.2 -27.6 Q241.8 -26.8 241.5 -25.2 Q241.2 -23.6 241.2 -22.5 Q241.2 -21.5 241.4 -20.1 Q241.6 -18.6 241.8 -17.9 Q242.3 -16.8 243.2 -16.2 Q244.1 -15.5 245.3 -15.5 Q246.4 -15.5 247.6 -16.3 Q249.4 -17.9 249.4 -22.5 Q249.6 -25.5 248.5 -27.8 Q247.3 -30.1 245.1 -29.7 Z M246.1 7.6 Q249.2 7.6 251.3 6.8 Q252.9 6.3 253.8 5.4 Q254.7 4.5 254.7 3.4 Q254.7 2.6 254.1 1.6 Q253.1 0.2 250.6 -0.2 Q248.1 -0.6 244.9 -0.6 Q242.7 -0.6 240.5 -0.4 Q238.3 -0.1 237.3 0.2 Q236.1 0.6 235.3 1.5 Q234.5 2.5 234.5 3.4 Q234.5 4.1 234.9 4.6 Q235.9 6 239.8 7 Q242.1 7.6 246.1 7.6 M281 -8.8 Q281.5 -6.8 283.6 -5.3 Q285.7 -3.8 287.9 -3.8 Q288.7 -3.8 290.2 -4.1 Q291.7 -4.5 292.8 -5 Q294.1 -5.8 295.8 -7.2 Q297.5 -8.7 298.2 -10 Q298.8 -10.9 299.2 -11.2 Q299.5 -11.5 300.1 -11.7 L300.4 -11.7 Q301 -11.7 301.4 -11.1 Q301.6 -10.8 301.6 -10.4 Q301.6 -9.6 301 -8.4 Q300 -6.5 298.5 -4.9 Q297.1 -3.2 295.5 -2.2 Q293.8 -0.9 291.8 -0.3 Q289.8 0.3 286.9 0.3 Q281.2 0.3 277.4 -2.2 Q273.5 -4.8 271.7 -9 Q269.9 -13.2 269.9 -18.2 Q269.9 -20.7 270.7 -23.5 Q271.5 -26.4 273.5 -28.8 Q275.3 -30.8 277.6 -32 Q279.5 -33.1 281.2 -33.5 Q283 -33.9 285.1 -33.9 Q288.2 -33.9 290.4 -33.3 Q292.5 -32.7 294.9 -31 Q296.5 -29.9 297.8 -28 Q299.1 -26.1 299.6 -24.5 Q300.4 -22.6 300.6 -20.2 L300.8 -17.9 L279.7 -17.9 L279.9 -14.8 Q280 -13.5 280.2 -11.8 Q280.5 -10.2 281 -8.8 Z M291.1 -22.1 Q291 -22.5 291 -23.5 L290.8 -25.3 Q289.8 -30.5 285.2 -30.4 Q281.8 -30.1 280.8 -27 Q280.4 -25.8 280.1 -24.4 Q279.9 -23 279.9 -22.4 L279.8 -20.9 L291.2 -20.9 Q291.2 -21.6 291.1 -22.1 M328.8 -33 Q329.8 -33.1 330.3 -33.1 Q332.2 -33.1 333.6 -32.3 Q335 -31.5 335.8 -30.4 Q336.5 -29.2 336.5 -27.8 Q336.5 -25.5 335.1 -24.1 Q333.7 -22.7 331.7 -22.7 Q329.6 -22.7 328.8 -23.7 Q328 -24.6 328 -25.9 L328.3 -27.2 Q328.2 -28 327.4 -28 Q327 -28 326.5 -27.8 Q325.2 -27.2 324.2 -26.1 Q323.2 -24.9 322.6 -23.4 L321.7 -21.5 L321.7 -8.6 Q321.4 -6.4 322.6 -4.4 Q323.8 -2.5 325.3 -2.3 L326 -2.2 Q326.4 -2.1 326.7 -1.8 Q327 -1.4 327 -1 Q326.9 -0.4 326.6 -0.2 Q326.2 0 325.5 0 L307 0 Q305.7 0 305.7 -1 Q305.7 -1.4 306.1 -1.8 Q306.5 -2.1 306.9 -2.2 L307.5 -2.3 Q308 -2.4 308.8 -2.7 Q309.6 -3.1 310.3 -3.6 Q311 -4.2 311.4 -5.7 Q311.8 -7.1 311.8 -8.6 L311.8 -25.5 Q312 -26.4 311.5 -27.4 Q311.1 -28.4 310.2 -29.1 Q309.2 -29.8 308.4 -29.7 L307 -29.9 Q306.5 -29.9 306.2 -30.2 Q305.9 -30.5 305.9 -30.8 Q305.9 -31.4 306.7 -31.9 Q307.9 -32.2 310.3 -32.4 Q316.1 -33 317.6 -33.6 L320 -34.5 Q320.8 -34.6 321.1 -34.5 Q321.6 -34 321.6 -33 L321.7 -27.5 Q322.1 -28.1 323.2 -29.5 Q324.3 -31 325.5 -31.8 Q326.8 -32.5 328.8 -33 " style="stroke-width: 0;" fill="#000000" id="masknamepathdata" stroke="#000000" paint-order="stroke" transform="matrix(1,0,0,1,0,0)"/></mask>
          
          </defs>
        </g>
        </svg>